<svg xmlns="http://www.w3.org/2000/svg" fill="none" viewBox="0 0 148 114">
  <path stroke="#fff" stroke-width="6" d="M7 3h136v102H7z"/>
  <path fill="#fff" d="M22.1545 37.25c-2.5667 0-4.8834-.5-6.95-1.5-2.0667-1-3.85-2.35-5.35004-4.05-1.5-1.7333-2.66667-3.6667-3.5-5.8-.8-2.1667-1.2-4.3833-1.2-6.65 0-2.3667.43333-4.6167 1.3-6.75.86666-2.1667 2.06666-4.08333 3.60004-5.75 1.5333-1.7 3.3333-3.03333 5.4-4 2.1-1 4.3666-1.5 6.8-1.5 2.5333 0 4.8333.51667 6.9 1.55 2.1 1.03333 3.8833 2.41666 5.35 4.15 1.5 1.73333 2.65 3.6667 3.45 5.8.8333 2.1333 1.25 4.3167 1.25 6.55 0 2.3667-.4334 4.6333-1.3 6.8-.8334 2.1333-2.0167 4.05-3.55 5.75-1.5334 1.6667-3.35 2.9833-5.45 3.95-2.0667.9667-4.3167 1.45-6.75 1.45Zm-11.3-18c0 1.6667.2666 3.2833.8 4.85.5333 1.5667 1.2833 2.9667 2.25 4.2 1 1.2 2.2 2.15 3.6 2.85 1.4.7 2.9666 1.05 4.7 1.05 1.8 0 3.4-.3667 4.8-1.1 1.4-.7333 2.5666-1.7167 3.5-2.95.9666-1.2667 1.7-2.6667 2.2-4.2.5-1.5667.75-3.1333.75-4.7 0-1.6667-.2667-3.2667-.8-4.8-.5-1.5667-1.25-2.95-2.25-4.15-1-1.23334-2.2-2.2-3.6-2.9-1.3667-.7-2.9-1.05-4.6-1.05-1.8 0-3.4.36667-4.8 1.1s-2.5834 1.71667-3.55 2.95c-.9667 1.2333-1.7167 2.6167-2.25 4.15-.5 1.5333-.75 3.1-.75 4.7ZM90.1521 1.5V37h-5.65V21.35h-17.9V37h-5.6V1.5h5.6v14.85h17.9V1.5h5.65ZM128.91 37.25c-2.566 0-4.883-.5-6.95-1.5-2.066-1-3.85-2.35-5.35-4.05-1.5-1.7333-2.666-3.6667-3.5-5.8-.8-2.1667-1.2-4.3833-1.2-6.65 0-2.3667.434-4.6167 1.3-6.75.867-2.1667 2.067-4.08333 3.6-5.75 1.534-1.7 3.334-3.03333 5.4-4 2.1-1 4.367-1.5 6.8-1.5 2.534 0 4.834.51667 6.9 1.55 2.1 1.03333 3.884 2.41666 5.35 4.15 1.5 1.73333 2.65 3.6667 3.45 5.8.834 2.1333 1.25 4.3167 1.25 6.55 0 2.3667-.433 4.6333-1.3 6.8-.833 2.1333-2.016 4.05-3.55 5.75-1.533 1.6667-3.35 2.9833-5.45 3.95-2.066.9667-4.316 1.45-6.75 1.45Zm-11.3-18c0 1.6667.267 3.2833.8 4.85.534 1.5667 1.284 2.9667 2.25 4.2 1 1.2 2.2 2.15 3.6 2.85 1.4.7 2.967 1.05 4.7 1.05 1.8 0 3.4-.3667 4.8-1.1 1.4-.7333 2.567-1.7167 3.5-2.95.967-1.2667 1.7-2.6667 2.2-4.2.5-1.5667.75-3.1333.75-4.7 0-1.6667-.266-3.2667-.8-4.8-.5-1.5667-1.25-2.95-2.25-4.15-1-1.23334-2.2-2.2-3.6-2.9-1.366-.7-2.9-1.05-4.6-1.05-1.8 0-3.4.36667-4.8 1.1s-2.583 1.71667-3.55 2.95c-.966 1.2333-1.716 2.6167-2.25 4.15-.5 1.5333-.75 3.1-.75 4.7Zm-83.895 22.2h-11.8V72h-5.65V41.45H4.41504V36.5H33.715v4.95Zm34.6106 25.6V72h-24.35V36.5h23.9v4.95h-18.3v10.1h15.85v4.65h-15.85v10.85h18.75ZM79.6525 72V36.5h24.9505v4.9H85.2525v9.95h10.4c3.9334 0 6.8835.9333 8.8505 2.8 1.966 1.8333 2.95 4.2667 2.95 7.3 0 2.0333-.434 3.85-1.3 5.45-.834 1.5667-2.1 2.8167-3.8 3.75-1.667.9-3.7838 1.35-6.3505 1.35h-16.35Zm5.6-4.9h10c1.5334 0 2.7667-.2833 3.7-.85.9667-.5667 1.6505-1.2833 2.0505-2.15.433-.9.65-1.8333.65-2.8 0-.9667-.184-1.8667-.55-2.7-.367-.8333-1.034-1.5-2.0005-2-.9333-.5333-2.25-.8-3.95-.8h-9.9v11.3Zm57.3055-.05V72h-24.35V36.5h23.9v4.95h-18.3v10.1h15.85v4.65h-15.85v10.85h18.75ZM33.5904 71.5V107h-5.65V91.35h-17.9V107H4.44043V71.5h5.59997v14.85h17.9V71.5h5.65Zm19.2582 0h5.3l13.8 35.5h-5.9l-3.75-9.65h-13.7l-3.7 9.65h-5.95l13.9-35.5Zm8.35 21.7-5.7-15.55-5.9 15.55h11.6Zm10.5403 20.6v-11.75h1.7c.9333 0 1.7333-.367 2.4-1.1.7-.733 1.2833-1.9 1.75-3.5.5-1.6.8833-3.7 1.15-6.3.3-2.6333.5166-5.85.65-9.65l.25-10h22.8501v30.55h4.5v11.75h-4.95V107H76.6889v6.8h-4.95Zm8.8-11.75h16.3v-25.6h-12l-.15 5.8c-.1 3.8333-.3 7.0833-.6 9.75-.3 2.6333-.7334 4.7667-1.3 6.4-.5667 1.633-1.3167 2.85-2.25 3.65Zm48.1731 5.2c-2.567 0-4.883-.5-6.95-1.5s-3.85-2.35-5.35-4.05c-1.5-1.7333-2.667-3.6667-3.5-5.8-.8-2.1667-1.2-4.3833-1.2-6.65 0-2.3667.433-4.6167 1.3-6.75.867-2.1667 2.067-4.0833 3.6-5.75 1.533-1.7 3.333-3.0333 5.4-4 2.1-1 4.367-1.5 6.8-1.5 2.533 0 4.833.5167 6.9 1.55 2.1 1.0333 3.883 2.4167 5.35 4.15 1.5 1.7333 2.65 3.6667 3.45 5.8.833 2.1333 1.25 4.3167 1.25 6.55 0 2.3667-.433 4.6333-1.3 6.8-.833 2.1333-2.017 4.05-3.55 5.75-1.533 1.667-3.35 2.983-5.45 3.95-2.067.967-4.317 1.45-6.75 1.45Zm-11.3-18c0 1.6667.267 3.2833.8 4.85.533 1.5667 1.283 2.9667 2.25 4.2 1 1.2 2.2 2.15 3.6 2.85 1.4.7 2.967 1.05 4.7 1.05 1.8 0 3.4-.367 4.8-1.1 1.4-.733 2.567-1.7167 3.5-2.95.967-1.2667 1.7-2.6667 2.2-4.2.5-1.5667.75-3.1333.75-4.7 0-1.6667-.267-3.2667-.8-4.8-.5-1.5667-1.25-2.95-2.25-4.15-1-1.2333-2.2-2.2-3.6-2.9-1.367-.7-2.9-1.05-4.6-1.05-1.8 0-3.4.3667-4.8 1.1-1.4.7333-2.583 1.7167-3.55 2.95-.967 1.2333-1.717 2.6167-2.25 4.15-.5 1.5333-.75 3.1-.75 4.7Z"/>
</svg>