<svg xmlns="http://www.w3.org/2000/svg" fill="none" viewBox="0 0 48 48">
  <circle cx="24" cy="24" r="23.5" stroke="#000"/>
  <path fill="#000" d="M32.7357 18.4777c-.3289-1.1262-.8574-2.0744-1.616-2.8984-.7416-.806-1.5949-1.4172-2.6092-1.8686-1.1551-.5129-2.4942-.7621-3.7737-.7019-.4668.0217-.9225.0465-1.3695.1121-1.2592.1825-2.3678.5628-3.3893 1.1629-1.3035.7663-2.3213 1.809-3.0248 3.0992-.3654.6714-.7252 1.8553-.8782 2.6282-.181.9116-.0216 2.4927.3416 3.3844.4537 1.1114.827 1.6039 1.7373 2.2914.0055.0041.5683.4148.9433.4086.6829-.0133.8187-.6751.8838-.9932.0122-.06.0241-.1195.0384-.1753.0127-.0492.0292-.1019.0457-.1568.0964-.316.2279-.7485.0097-1.132-.082-.1437-.1788-.2556-.2642-.3539-.0465-.0536-.093-.1052-.1307-.1622-.3239-.4874-.4879-1.0973-.4879-1.8127 0-.9386.2097-1.7887.641-2.5987.7826-1.4692 2.0815-2.3967 3.7567-2.6825.9535-.1617 2.0642-.094 2.898.1765.7615.2475 1.4097.6852 1.8748 1.2664.4922.6151.7738 1.3953.8359 2.3194.0406.5898-.0122 1.1836-.0558 1.5782-.1683 1.5186-.6046 2.741-1.2963 3.634-.5666.7327-1.1776 1.1001-1.8685 1.1237-.4448.0175-.7771-.0746-1.0777-.2927-.2838-.205-.4525-.4576-.532-.7942-.09-.3843.0186-.7828.1341-1.2047l.0186-.0674c.101-.3713.2063-.7104.3099-1.0442.1628-.526.3315-1.0699.4706-1.7006.1573-.7122.178-1.2872.0643-1.7575-.1404-.5835-.4499-1.0206-.9201-1.2995-.4976-.2942-1.2025-.3507-1.794-.1442-.882.3051-1.5547 1.1166-1.8461 2.2266-.1475.5638-.1906 1.1556-.1268 1.7578.0491.4722.1531.9011.3459 1.4193-.0063.0225-.0135.0461-.0203.069-.014.0463-.0267.0908-.036.1292-.2076.8773-.4093 1.7426-.6105 2.6064-.1911.8201-.3822 1.6389-.5776 2.4659l-.044.1854c-.2.8426-.4063 1.7138-.4541 2.754l-.0215.4345c-.0423.808-.0854 1.6438.0215 2.417.0212.1508.0681.4891.3966.6073.0981.0748.1928.1061.2846.1061.2748 0 .5196-.283.7277-.523.6794-.7828 1.257-1.7711 1.7661-3.0209.2279-.559.3788-1.1604.5247-1.7422l.0879-.3467c.1066-.4143.211-.8342.3142-1.2496l.0068-.0276c.1919.1701.4135.3237.6701.4661.5434.3049 1.1565.4825 1.8215.5277.6237.0429 1.2799-.0381 2.0042-.2487.5501-.159 1.0769-.4005 1.5661-.7179 1.7551-1.1389 2.9517-3.1313 3.3691-5.6099.1251-.7406.1784-1.336.1784-1.9907 0-.7554-.0888-1.4416-.2643-2.0389Zm-.7674 3.8818c-.3763 2.2323-1.4355 4.0146-2.9826 5.0185-.4181.2715-.868.4776-1.3377.6134-.6262.1823-1.1856.2532-1.707.217-.5459-.0372-1.0236-.1746-1.4629-.4211-.4394-.2436-.7243-.5083-.9243-.8576l-.5311-.9292-.4786 1.9029c-.1027.413-.2064.8303-.3125 1.2425l-.0888.3518c-.145.5772-.2816 1.1224-.4862 1.6233-.4558 1.1198-.9649 2.0055-1.5539 2.7039-.046-.5945-.0114-1.2612.0225-1.9093l.0219-.4396c.0436-.9572.2406-1.7872.4309-2.5897l.0444-.1864c.1953-.8276.3864-1.6475.578-2.4683.2012-.8629.4025-1.7272.6097-2.6025.0059-.0247.0148-.0536.0236-.0838.0521-.1769.1062-.3597.033-.5455-.1856-.4822-.2837-.8668-.3272-1.2864-.0521-.4958-.0178-.9802.1031-1.4399.2157-.8216.6854-1.4127 1.2897-1.6218.1496-.0521.3065-.0744.457-.0744.2457 0 .4731.0596.6195.1461.2629.156.4317.4011.5153.7503.0804.3318.0575.7886-.0676 1.3574-.1315.5945-.2871 1.0971-.452 1.6293-.1066.343-.2144.6916-.3184 1.0733l-.0181.0667c-.1332.4867-.2842 1.0382-.1421 1.6427.1289.5474.4139.9742.8706 1.3047.4536.3287.9864.4757 1.6105.4557.9488-.0323 1.7965-.5234 2.5204-1.4589.7928-1.023 1.2892-2.3948 1.4761-4.0783.0469-.4291.1044-1.0758.0592-1.7361-.0753-1.1076-.4207-2.0535-1.0275-2.8117-.5712-.7139-1.3606-1.2497-2.2832-1.5492-.9573-.3113-2.224-.3907-3.3056-.2065-1.9483.3325-3.4612 1.415-4.3753 3.1311-.5015.9413-.745 1.9277-.745 3.0156 0 .8932.2134 1.6677.635 2.3022.058.0877.1273.1695.1991.252.0648.0745.1256.1448.1628.2101.0263.0716-.049.319-.0853.4379-.0203.0671-.0398.1316-.0555.1918-.0181.07-.0338.145-.0494.2207-.0169.0826-.0427.2101-.0702.2802-.1027-.0407-.2901-.1451-.3915-.2214-.778-.5871-1.0634-.9647-1.4541-1.9225-.293-.7198-.4385-2.1445-.293-2.8764.1623-.8201.5082-1.8641.7873-2.3768.6266-1.1489 1.5352-2.0791 2.7013-2.7645.9235-.5424 1.9298-.8869 3.0782-1.0534.4084-.06.8414-.0834 1.2862-.1039 1.1475-.0546 2.3505.1688 3.3855.6288.904.4023 1.6642.9463 2.3238 1.6636.6652.7222 1.1289 1.556 1.419 2.5494.1518.5165.2288 1.1187.2288 1.7893 0 .6025-.0495 1.1537-.1658 1.8429Z"/>
</svg>