<svg xmlns="http://www.w3.org/2000/svg" fill="none" viewBox="0 0 48 48">
  <path fill="#000" d="M37.1249 32.9531h-3.9375c-.4687 0-.9375-.2812-1.2187-.6562l-.375-.6094c-.2344-.2812-2.3906-2.7656-3.7031-3.5625-.5157-.2812-.7032-.2344-.7032-.2344s-.0468.1407-.0468.1875v2.4844c0 1.3125-1.0782 2.3437-2.3438 2.3437h-.9375c-.2344 0-5.4844-.0937-9.6562-6.3281-3.2813-4.875-4.3594-8.0625-4.7344-9.8906-.09375-.4219.04687-.8438.28125-1.1719.28125-.3281.65625-.5156 1.07815-.5156h3.3281c.6094 0 1.125.375 1.3125.9844.375 1.0781 1.3125 3.8437 2.4375 5.625 1.6406 2.7187 2.2969 2.9531 2.4844 2.9531.1406-.2344.0937-1.1719.0937-1.7812v-1.4532c0-1.1719.0469-2.7656-.4219-3.5156l-.9375-1.3594c-.1875-.2812-.2343-.6562-.0468-.9843.1406-.3282.4687-.5157.8437-.5157h5.3438c.7968 0 1.4062.6563 1.4062 1.4063v6.75c0 .0469.0469.0937.0469.0937s.1875 0 .7031-.4687c1.0781-1.0782 2.4375-3.0938 3.7969-5.8594l.4687-1.0781c.2344-.5156.75-.8438 1.3125-.8438h3.4688c.4687 0 .8906.2344 1.1719.6094.2812.375.3281.8906.1406 1.3125l-.375.9844v.0469c-.0469.0937-1.3125 2.5781-2.625 4.4062-1.0313 1.4063-1.4531 2.0625-1.3594 2.2969.0938.1406.7031.8437 1.3125 1.4062 1.125 1.1719 2.5313 2.6719 3.0469 3.6563.2344.4219.4687.7969.6094 1.125.2343.4219.2343.9375-.0469 1.4062-.2813.5157-.7031.75-1.2188.75Zm-9.8437-6c.3281 0 .7031.1407 1.125.375 1.5469.8907 3.8906 3.6563 3.9844 3.7969l.0468.0469.375.6093c.0938.1407.2344.2344.4219.2344h3.8906c.2344 0 .375-.1406.4219-.2344.0469-.0468.1406-.2343 0-.4687-.1875-.3281-.375-.7031-.6094-1.125-.4687-.8437-1.875-2.3437-2.9062-3.4687-1.0313-1.125-1.4063-1.5-1.5-1.7344-.2813-.7032.1406-1.2656 1.5-3.1406 1.2187-1.6875 2.3906-3.9844 2.5312-4.2657l.375-.9843c.0469-.1407.0469-.3282-.0468-.4219-.0938-.1406-.2344-.1875-.375-.1875h-3.4688c-.1875 0-.375.0937-.4219.2812l-.4687 1.125c-1.0313 2.0157-2.5313 4.6875-3.9844 6.1406-.6094.6094-1.1719.7969-1.6406.6563-.5625-.1875-.7031-.7969-.7031-.8437v-6.8907c0-.2812-.2344-.4687-.4688-.4687h-5.4375l.9375 1.3594c.6094.9843.6094 2.7187.5625 4.0781v1.3594c.0469 1.3125.0469 2.5312-.7969 2.7187-.9375.1875-1.9218-.7969-3.5156-3.375-1.0781-1.8281-2.0156-4.4062-2.4844-5.8125-.0468-.1875-.2343-.3281-.4687-.3281h-3.2813c-.1406 0-.2812.0469-.375.1875-.0937.0937-.0937.2344-.0937.375.3281 1.7344 1.4062 4.7812 4.5937 9.5625 3.8907 5.8125 8.8125 5.9062 8.8594 5.9062h.9375c.7969 0 1.4063-.6562 1.4063-1.4062V28.125c0-.0469 0-.7031.5156-1.0312.1875-.0938.375-.1407.5625-.1407Z"/>
  <circle cx="24" cy="24" r="23.5" stroke="#000"/>
</svg>