<svg xmlns="http://www.w3.org/2000/svg" fill="none" viewBox="0 0 48 48">
  <path fill="#000" d="M31.8296 14H16.1703C13.3193 14 11 16.436 11 19.4302v9.1396C11 31.564 13.3193 34 16.1703 34h15.6593C34.6806 34 37 31.564 37 28.5698v-9.1396C37 16.436 34.6806 14 31.8296 14Zm4.1092 14.5698c0 2.3814-1.8434 4.3191-4.1092 4.3191H16.1703c-2.2657 0-4.1091-1.9377-4.1091-4.3191v-9.1396c0-2.3814 1.8434-4.3191 4.1091-4.3191h15.6593c2.2658 0 4.1092 1.9377 4.1092 4.3191v9.1396Z"/>
  <path fill="#000" d="m28.7014 23.799-7.3516-4.5085c-.1632-.1001-.3669-.1017-.5319-.0027-.1651.099-.2669.2829-.2669.482v9.0159c0 .1991.1018.383.2666.482.0819.0491.1731.0736.264.0736.0928 0 .1853-.0255.2682-.0763l7.3516-4.5073c.1624-.0996.2625-.2822.2625-.4794s-.0998-.3798-.2625-.4793Zm-7.0892 4.0174v-7.0773l5.771 3.5392-5.771 3.5381Z"/>
  <circle cx="24" cy="24" r="23.5" stroke="#000"/>
</svg>